<?xml version="1.0" encoding="UTF-8" standalone="no"?>
<!DOCTYPE svg PUBLIC "-//W3C//DTD SVG 1.0//EN"
 "http://www.w3.org/TR/2001/REC-SVG-20010904/DTD/svg10.dtd" [
 <!ATTLIST svg xmlns:xlink CDATA #FIXED "http://www.w3.org/1999/xlink">
]>
<!-- Generated by Graphviz version 2.20.2 (Tue Mar &#160;2 21:46:26 UTC 2010)
     For user: (masayuki) Masayuki Ataka,,,, -->
<!-- Title: g Pages: 1 -->
<svg width="424pt" height="98pt"
 viewBox="0.00 0.00 424.00 98.00" xmlns="http://www.w3.org/2000/svg" xmlns:xlink="http://www.w3.org/1999/xlink">
<g id="graph0" class="graph" transform="scale(1 1) rotate(0) translate(4 94)">
<title>g</title>
<polygon style="fill:white;stroke:white;" points="-4,4 -4,-94 420,-94 420,4 -4,4"/>
<!-- foo.tex -->
<g id="node1" class="node"><title>foo.tex</title>
<ellipse style="fill:none;stroke:black;" cx="40" cy="-45" rx="39.1446" ry="18"/>
<text text-anchor="middle" x="40" y="-39.9" style="font-family:Times New Roman;font-size:14.00;">foo.tex</text>
</g>
<!-- foo.dvi -->
<g id="node3" class="node"><title>foo.dvi</title>
<ellipse style="fill:none;stroke:black;" cx="197" cy="-45" rx="38.9965" ry="18"/>
<text text-anchor="middle" x="197" y="-39.9" style="font-family:Times New Roman;font-size:14.00;">foo.dvi</text>
</g>
<!-- foo.tex&#45;&gt;foo.dvi -->
<g id="edge2" class="edge"><title>foo.tex&#45;&gt;foo.dvi</title>
<path style="fill:none;stroke:black;" d="M80,-45C101,-45 126,-45 148,-45"/>
<polygon style="fill:black;stroke:black;" points="148,-48.5001 158,-45 148,-41.5001 148,-48.5001"/>
<text text-anchor="middle" x="119" y="-46.9" style="font-family:Times New Roman;font-size:14.00;">platex</text>
</g>
<!-- foo.ps -->
<g id="node5" class="node"><title>foo.ps</title>
<ellipse style="fill:none;stroke:black;" cx="375" cy="-72" rx="37.0467" ry="18"/>
<text text-anchor="middle" x="375" y="-66.9" style="font-family:Times New Roman;font-size:14.00;">foo.ps</text>
</g>
<!-- foo.dvi&#45;&gt;foo.ps -->
<g id="edge4" class="edge"><title>foo.dvi&#45;&gt;foo.ps</title>
<path style="fill:none;stroke:black;" d="M234,-51C262,-55 300,-61 329,-65"/>
<polygon style="fill:black;stroke:black;" points="328.508,-68.4708 339,-67 329.881,-61.6067 328.508,-68.4708"/>
<text text-anchor="middle" x="285" y="-62.9" style="font-family:Times New Roman;font-size:14.00;">dvips</text>
</g>
<!-- foo.pdf -->
<g id="node7" class="node"><title>foo.pdf</title>
<ellipse style="fill:none;stroke:black;" cx="375" cy="-18" rx="40.9464" ry="18"/>
<text text-anchor="middle" x="375" y="-12.9" style="font-family:Times New Roman;font-size:14.00;">foo.pdf</text>
</g>
<!-- foo.dvi&#45;&gt;foo.pdf -->
<g id="edge6" class="edge"><title>foo.dvi&#45;&gt;foo.pdf</title>
<path style="fill:none;stroke:black;" d="M232,-37C239,-36 247,-34 254,-33 277,-29 303,-26 325,-23"/>
<polygon style="fill:black;stroke:black;" points="325.398,-26.4778 335,-22 324.701,-19.5125 325.398,-26.4778"/>
<text text-anchor="middle" x="285" y="-34.9" style="font-family:Times New Roman;font-size:14.00;">dvipdfmx</text>
</g>
</g>
</svg>
